<?xml version="1.0" encoding="utf-8"?>
<!-- Generator: Adobe Illustrator 24.2.3, SVG Export Plug-In . SVG Version: 6.00 Build 0)  -->
<svg version="1.1" id="Layer_1" xmlns="http://www.w3.org/2000/svg" xmlns:xlink="http://www.w3.org/1999/xlink" x="0px" y="0px"
	 viewBox="0 0 500 500" style="enable-background:new 0 0 500 500;" xml:space="preserve">
<style type="text/css">
	.st0{fill:#284D57;}
	.st1{font-family:'HelveticaNeue-CondensedBlack';}
	.st2{font-size:40.4783px;}
	.st3{font-size:63.858px;}
	.st4{fill:none;stroke:#447C89;stroke-width:2;stroke-miterlimit:10;}
	.st5{fill:url(#SVGID_1_);}
	.st6{fill:url(#SVGID_2_);}
	.st7{fill:url(#SVGID_3_);}
	.st8{font-size:59px;}
	.st9{filter:url(#Adobe_OpacityMaskFilter);}
	.st10{opacity:0.85;mask:url(#SVGID_4_);}
	.st11{fill:#14212C;}
	.st12{font-family:'HelveticaNeue-MediumItalic';}
	.st13{filter:url(#Adobe_OpacityMaskFilter_1_);}
	.st14{opacity:0.85;mask:url(#SVGID_5_);}
	.st15{filter:url(#Adobe_OpacityMaskFilter_2_);}
	.st16{opacity:0.85;mask:url(#SVGID_6_);}
	.st17{filter:url(#Adobe_OpacityMaskFilter_3_);}
	.st18{opacity:0.85;mask:url(#SVGID_7_);}
	.st19{fill:url(#SVGID_8_);}
	.st20{fill:url(#SVGID_9_);}
	.st21{fill:url(#SVGID_10_);}
	.st22{font-size:149px;}
	.st23{filter:url(#Adobe_OpacityMaskFilter_4_);}
	.st24{opacity:0.85;mask:url(#SVGID_11_);}
	.st25{filter:url(#Adobe_OpacityMaskFilter_5_);}
	.st26{opacity:0.85;mask:url(#SVGID_12_);}
	.st27{fill:#ABB4DC;}
	.st28{font-family:'HelveticaNeue-CondensedBold';}
</style>
<g>
	
		<image style="overflow:visible;opacity:0.75;" width="325" height="440" xlink:href="EF78CD7A7FF00C94.png"  transform="matrix(1 0 0 1 88 30)">
	</image>
	<g>
		<g>
			<text transform="matrix(-0.2151 -1.2941 -0.9865 0.164 197.5038 452.9775)" class="st0 st1 st2">)</text>
			<text transform="matrix(0.2151 -1.2941 0.9865 0.164 308.2323 452.9775)" class="st0 st1 st2">)</text>
			<text transform="matrix(1.3377 0 0 1 267.4268 437.2118)" class="st0 st1 st3">)</text>
			<text transform="matrix(-1.3377 0 0 1 237.8222 437.2115)" class="st0 st1 st3">)</text>
			<line class="st4" x1="216.7" y1="52.8" x2="234.6" y2="75.3"/>
			<line class="st4" x1="276" y1="52.8" x2="258" y2="75.3"/>
			<linearGradient id="SVGID_1_" gradientUnits="userSpaceOnUse" x1="252.4775" y1="410.8636" x2="249.4635" y2="211.4323">
				<stop  offset="0" style="stop-color:#14212C"/>
				<stop  offset="3.152760e-02" style="stop-color:#15232E"/>
				<stop  offset="0.8869" style="stop-color:#284D57"/>
			</linearGradient>
			<ellipse class="st5" cx="250.5" cy="280" rx="60.5" ry="134"/>
			<g>
				<linearGradient id="SVGID_2_" gradientUnits="userSpaceOnUse" x1="246.7458" y1="93.0388" x2="249.2575" y2="227.1652">
					<stop  offset="0" style="stop-color:#14212C"/>
					<stop  offset="1" style="stop-color:#284D57"/>
				</linearGradient>
				<path class="st6" d="M303.4,228H192.6c-22.3,0-40.6-18.3-40.6-40.6v-54.8c0-22.3,18.3-40.6,40.6-40.6h110.8
					c22.3,0,40.6,18.3,40.6,40.6v54.8C344,209.7,325.7,228,303.4,228z"/>
			</g>
			<g>
				<linearGradient id="SVGID_3_" gradientUnits="userSpaceOnUse" x1="194.4606" y1="195.6164" x2="305.8243" y2="121.7528">
					<stop  offset="0" style="stop-color:#ABB4DC"/>
					<stop  offset="1" style="stop-color:#F0F0FF"/>
				</linearGradient>
				<path class="st7" d="M288.5,212h-80.3c-16.8,0-30.5-13.7-30.5-30.5v-43.3c0-16.8,13.7-30.5,30.5-30.5h80.3
					c16.8,0,30.5,13.7,30.5,30.5v43.3C319,198.3,305.3,212,288.5,212z"/>
			</g>
			<g>
				<g>
					<text transform="matrix(1 0 0 1 223.1908 175.9054)" class="st0 st1 st8">@</text>
				</g>
				<defs>
					<filter id="Adobe_OpacityMaskFilter" filterUnits="userSpaceOnUse" x="224.9" y="133" width="43.8" height="43.6">
						
							<feColorMatrix  type="matrix" values="-1 0 0 0 1  0 -1 0 0 1  0 0 -1 0 1  0 0 0 1 0" color-interpolation-filters="sRGB" result="source"/>
					</filter>
				</defs>
				<mask maskUnits="userSpaceOnUse" x="224.9" y="133" width="43.8" height="43.6" id="SVGID_4_">
					<g class="st9">
						
							<image style="overflow:visible;" width="49" height="49" xlink:href="EF78CD7A7FF00C94.jpg"  transform="matrix(1 0 0 1 222 130)">
						</image>
					</g>
				</mask>
				<g class="st10">
					<path class="st11" d="M257.5,156.8l2.4-12.4h-5.4l-0.5,2.2c-1-1.3-2.1-2.2-3.3-2.7c-1.2-0.6-2.6-0.9-4.1-0.9
						c-1.8,0-3.5,0.4-4.9,1.1c-1.5,0.7-2.7,1.8-3.8,3c-1,1.3-1.8,2.7-2.4,4.3c-0.6,1.6-0.9,3.3-0.9,5c0,1.5,0.2,2.9,0.7,4.2
						c0.5,1.2,1.2,2.3,2,3.2c0.8,0.9,1.8,1.6,3,2.1c1.1,0.5,2.3,0.7,3.5,0.7c1.3,0,2.5-0.2,3.6-0.7c1.1-0.5,2-1.1,2.6-1.9h0.2
						c0.1,0.8,0.5,1.5,1.1,1.9c0.6,0.5,1.4,0.7,2.3,0.7c1.6,0,3.2-0.4,5-1.1c1.8-0.7,3.4-1.8,4.9-3.1c1.5-1.4,2.7-3,3.7-5
						c1-2,1.5-4.2,1.5-6.7c0-2.7-0.6-5.2-1.8-7.4c-1.2-2.2-2.8-4.1-4.8-5.6c-2-1.5-4.3-2.7-7-3.5c-2.6-0.8-5.4-1.2-8.3-1.2
						c-3,0-5.9,0.6-8.5,1.7c-2.7,1.1-5,2.7-7,4.7c-2,2-3.5,4.3-4.7,7c-1.1,2.7-1.7,5.5-1.7,8.5c0,3,0.6,5.9,1.7,8.5
						c1.1,2.7,2.7,5,4.7,6.9c2,2,4.3,3.5,7,4.6c2.7,1.1,5.5,1.7,8.5,1.7c4.8,0,8.7-0.7,11.8-2.2c3.1-1.4,5.8-3.6,7.9-6.6H260
						c-1.5,1.1-3.2,2-5.1,2.6c-1.9,0.6-4,0.9-6.2,0.9c-2.5,0-4.8-0.4-7-1.1c-2.1-0.7-4-1.8-5.5-3.2s-2.7-3.1-3.6-5.2
						c-0.8-2-1.3-4.3-1.3-6.9c0-2.4,0.4-4.7,1.2-6.7s1.9-3.7,3.3-5.2s3.1-2.6,5.1-3.4c2-0.8,4.2-1.2,6.7-1.2c2.2,0,4.3,0.3,6.2,0.9
						c1.9,0.6,3.6,1.4,5,2.6c1.4,1.1,2.5,2.5,3.2,4.1c0.8,1.6,1.2,3.5,1.2,5.6c0,1.7-0.2,3.1-0.5,4.2c-0.4,1.2-0.8,2.1-1.3,2.9
						c-0.5,0.7-1.1,1.3-1.7,1.6s-1.1,0.5-1.7,0.5c-0.7,0-1-0.4-1-1.3c0-0.3,0-0.7,0.1-1.2C257.3,157.8,257.4,157.3,257.5,156.8z
						 M251.5,156.4c-0.3,0.7-0.7,1.4-1.2,1.9c-0.5,0.6-1.2,1-1.9,1.3c-0.7,0.3-1.5,0.5-2.4,0.5c-1.3,0-2.3-0.5-3.1-1.4
						c-0.8-0.9-1.2-2-1.2-3.3c0-0.7,0.1-1.4,0.4-2.2c0.3-0.7,0.7-1.4,1.2-1.9c0.5-0.6,1.1-1,1.8-1.4c0.7-0.4,1.4-0.5,2.2-0.5
						c1.4,0,2.5,0.4,3.4,1.3c0.8,0.9,1.3,2,1.3,3.4C252,154.9,251.8,155.7,251.5,156.4z"/>
				</g>
			</g>
			<g>
				<g>
					<text transform="matrix(2.2718 0 0 1 206.5805 209.4186)" class="st0 st12 st8">=</text>
				</g>
				<defs>
					<filter id="Adobe_OpacityMaskFilter_1_" filterUnits="userSpaceOnUse" x="213" y="185.5" width="67.6" height="17.9">
						
							<feColorMatrix  type="matrix" values="-1 0 0 0 1  0 -1 0 0 1  0 0 -1 0 1  0 0 0 1 0" color-interpolation-filters="sRGB" result="source"/>
					</filter>
				</defs>
				<mask maskUnits="userSpaceOnUse" x="213" y="185.5" width="67.6" height="17.9" id="SVGID_5_">
					<g class="st13">
						
							<image style="overflow:visible;" width="72" height="23" xlink:href="EF78CD7A7FF00C93.jpg"  transform="matrix(1 0 0 1 211 183)">
						</image>
					</g>
				</mask>
				<g class="st14">
					<path class="st11" d="M213,185.5v6h67.6v-6H213z M213,203.5h67.6v-6H213V203.5z"/>
				</g>
			</g>
			<g>
				<g>
					<text transform="matrix(1 0 0 1 344.1602 173.4179)" class="st0 st1 st8">{</text>
				</g>
				<defs>
					<filter id="Adobe_OpacityMaskFilter_2_" filterUnits="userSpaceOnUse" x="344" y="131.3" width="19.8" height="52.8">
						
							<feColorMatrix  type="matrix" values="-1 0 0 0 1  0 -1 0 0 1  0 0 -1 0 1  0 0 0 1 0" color-interpolation-filters="sRGB" result="source"/>
					</filter>
				</defs>
				<mask maskUnits="userSpaceOnUse" x="344" y="131.3" width="19.8" height="52.8" id="SVGID_6_">
					<g class="st15">
						
							<image style="overflow:visible;" width="24" height="58" xlink:href="EF78CD7A7FF00C9C.jpg"  transform="matrix(1 0 0 1 342 129)">
						</image>
					</g>
				</mask>
				<g class="st16">
					<path class="st11" d="M353.3,157.4c0.7-0.2,1.4-0.4,2.1-0.8c0.7-0.4,1.2-0.9,1.7-1.6c0.5-0.7,0.7-1.6,0.7-2.7v-9.9
						c0-0.4,0-0.8,0.1-1.2c0.1-0.4,0.2-0.8,0.4-1.2s0.4-0.6,0.8-0.9c0.4-0.2,0.8-0.4,1.5-0.4h3.3v-7.4h-7.1c-2.9,0-5.1,0.7-6.6,2
						c-1.5,1.3-2.3,3.4-2.3,6.1v11c0,0.8-0.1,1.4-0.4,1.9c-0.3,0.5-0.6,0.8-1.1,1c-0.4,0.2-0.8,0.4-1.3,0.4c-0.5,0.1-0.8,0.1-1,0.1
						v7.9c0.2,0,0.6,0,1,0.1c0.5,0.1,0.9,0.3,1.3,0.5c0.4,0.3,0.8,0.7,1.1,1.2c0.3,0.5,0.4,1.2,0.4,2.1V176c0,2.7,0.8,4.7,2.3,6.1
						c1.5,1.3,3.7,2,6.6,2h7.1v-7.4h-3.3c-0.6,0-1.1-0.1-1.5-0.4c-0.4-0.2-0.6-0.5-0.8-0.9s-0.3-0.7-0.4-1.2
						c-0.1-0.4-0.1-0.8-0.1-1.1v-9.4c0-1.3-0.2-2.4-0.7-3.2s-1-1.4-1.7-1.8s-1.4-0.7-2.1-0.8c-0.7-0.1-1.3-0.2-1.9-0.2v-0.1
						C351.9,157.7,352.5,157.6,353.3,157.4z"/>
				</g>
			</g>
			<g>
				<g>
					<text transform="matrix(-1 0 0 1 151.9961 173.4182)" class="st0 st1 st8">{</text>
				</g>
				<defs>
					<filter id="Adobe_OpacityMaskFilter_3_" filterUnits="userSpaceOnUse" x="132.3" y="131.3" width="19.8" height="52.8">
						
							<feColorMatrix  type="matrix" values="-1 0 0 0 1  0 -1 0 0 1  0 0 -1 0 1  0 0 0 1 0" color-interpolation-filters="sRGB" result="source"/>
					</filter>
				</defs>
				<mask maskUnits="userSpaceOnUse" x="132.3" y="131.3" width="19.8" height="52.8" id="SVGID_7_">
					<g class="st17">
						
							<image style="overflow:visible;" width="25" height="58" xlink:href="EF78CD7A7FF00C9F.jpg"  transform="matrix(1 0 0 1 130 129)">
						</image>
					</g>
				</mask>
				<g class="st18">
					<path class="st11" d="M151.1,153.7c-0.5-0.1-0.9-0.2-1.3-0.4c-0.4-0.2-0.8-0.6-1.1-1c-0.3-0.5-0.4-1.1-0.4-1.9v-11
						c0-2.7-0.8-4.7-2.3-6.1c-1.5-1.3-3.7-2-6.6-2h-7.1v7.4h3.3c0.6,0,1.1,0.1,1.5,0.4c0.4,0.2,0.6,0.5,0.8,0.9
						c0.2,0.4,0.3,0.7,0.4,1.2c0.1,0.4,0.1,0.8,0.1,1.2v9.9c0,1.1,0.2,2,0.7,2.7c0.5,0.7,1,1.2,1.7,1.6c0.7,0.4,1.4,0.7,2.1,0.8
						c0.7,0.2,1.3,0.3,1.9,0.3v0.1c-0.5,0-1.1,0.1-1.9,0.2c-0.7,0.1-1.4,0.4-2.1,0.8c-0.7,0.4-1.2,1-1.7,1.8
						c-0.5,0.8-0.7,1.8-0.7,3.2v9.4c0,0.3,0,0.6-0.1,1.1c-0.1,0.4-0.2,0.8-0.4,1.2c-0.2,0.4-0.4,0.6-0.8,0.9
						c-0.4,0.2-0.8,0.4-1.5,0.4h-3.3v7.4h7.1c2.9,0,5.1-0.7,6.6-2c1.5-1.3,2.3-3.4,2.3-6.1v-10.3c0-0.9,0.1-1.6,0.4-2.1
						c0.3-0.5,0.6-0.9,1.1-1.2c0.4-0.3,0.8-0.5,1.3-0.5c0.5-0.1,0.8-0.1,1-0.1v-7.9C151.9,153.8,151.5,153.8,151.1,153.7z"/>
				</g>
			</g>
			<linearGradient id="SVGID_8_" gradientUnits="userSpaceOnUse" x1="247.0118" y1="95.6577" x2="246.6744" y2="73.3313">
				<stop  offset="0" style="stop-color:#14212C"/>
				<stop  offset="0.8869" style="stop-color:#284D57"/>
			</linearGradient>
			<circle class="st19" cx="246.8" cy="81" r="15"/>
			<linearGradient id="SVGID_9_" gradientUnits="userSpaceOnUse" x1="213.6253" y1="55.8097" x2="213.4341" y2="43.158">
				<stop  offset="0" style="stop-color:#447C89"/>
				<stop  offset="0.8869" style="stop-color:#284D57"/>
			</linearGradient>
			<circle class="st20" cx="213.5" cy="47.5" r="8.5"/>
			<linearGradient id="SVGID_10_" gradientUnits="userSpaceOnUse" x1="277.6253" y1="55.8097" x2="277.4341" y2="43.158">
				<stop  offset="0" style="stop-color:#447C89"/>
				<stop  offset="0.8869" style="stop-color:#284D57"/>
			</linearGradient>
			<circle class="st21" cx="277.5" cy="47.5" r="8.5"/>
			<g>
				<g>
					<text transform="matrix(1 0 0 1 97.2859 335.5479)" class="st0 st1 st22">&lt;</text>
				</g>
				<defs>
					<filter id="Adobe_OpacityMaskFilter_4_" filterUnits="userSpaceOnUse" x="104.3" y="257.5" width="75.4" height="80.3">
						
							<feColorMatrix  type="matrix" values="-1 0 0 0 1  0 -1 0 0 1  0 0 -1 0 1  0 0 0 1 0" color-interpolation-filters="sRGB" result="source"/>
					</filter>
				</defs>
				<mask maskUnits="userSpaceOnUse" x="104.3" y="257.5" width="75.4" height="80.3" id="SVGID_11_">
					<g class="st23">
						
							<image style="overflow:visible;" width="80" height="85" xlink:href="EF78CD7A7FF00C9D.jpg"  transform="matrix(1 0 0 1 102 255)">
						</image>
					</g>
				</mask>
				<g class="st24">
					<polygon class="st11" points="179.7,257.5 104.3,288.5 104.3,307.2 179.7,337.8 179.7,318.3 129.3,297.9 179.7,277.4 					"/>
				</g>
			</g>
			<g>
				<g>
					<text transform="matrix(-1 0 0 1 403.4404 335.5479)" class="st0 st1 st22">&lt;</text>
				</g>
				<defs>
					<filter id="Adobe_OpacityMaskFilter_5_" filterUnits="userSpaceOnUse" x="321" y="257.5" width="75.4" height="80.3">
						
							<feColorMatrix  type="matrix" values="-1 0 0 0 1  0 -1 0 0 1  0 0 -1 0 1  0 0 0 1 0" color-interpolation-filters="sRGB" result="source"/>
					</filter>
				</defs>
				<mask maskUnits="userSpaceOnUse" x="321" y="257.5" width="75.4" height="80.3" id="SVGID_12_">
					<g class="st25">
						
							<image style="overflow:visible;" width="80" height="85" xlink:href="EF78CD7A7FF00C92.jpg"  transform="matrix(1 0 0 1 319 255)">
						</image>
					</g>
				</mask>
				<g class="st26">
					<polygon class="st11" points="321,257.5 321,277.4 371.4,297.9 321,318.3 321,337.8 396.4,307.2 396.4,288.5 					"/>
				</g>
			</g>
			<g>
				
					<image style="overflow:visible;opacity:0.9;" width="111" height="239" xlink:href="EF78CD7A7FF00C95.png"  transform="matrix(1 0 0 1 197 195)">
				</image>
				<g>
					<text transform="matrix(1 0 0 1 227.4409 353.5479)" class="st27 st28 st22">/</text>
				</g>
			</g>
		</g>
	</g>
</g>
</svg>
