<?xml version="1.0" encoding="utf-8"?>
<!-- Generator: Adobe Illustrator 24.2.3, SVG Export Plug-In . SVG Version: 6.00 Build 0)  -->
<svg version="1.1" id="Layer_1" xmlns="http://www.w3.org/2000/svg" xmlns:xlink="http://www.w3.org/1999/xlink" x="0px" y="0px"
	 viewBox="0 0 1920 1080" style="enable-background:new 0 0 1920 1080;" xml:space="preserve">
<style type="text/css">
	.st0{clip-path:url(#SVGID_2_);}
	.st1{fill:url(#SVGID_3_);}
	.st2{fill:url(#SVGID_4_);}
	.st3{fill:url(#SVGID_5_);}
	.st4{fill:url(#SVGID_6_);}
	.st5{clip-path:url(#SVGID_2_);fill:url(#SVGID_7_);}
	.st6{fill:#14212C;}
	.st7{opacity:0.16;}
	.st8{opacity:0.15;}
	.st9{clip-path:url(#SVGID_2_);fill:url(#SVGID_10_);}
	.st10{clip-path:url(#SVGID_2_);fill:#14212C;}
	.st11{opacity:0.16;clip-path:url(#SVGID_2_);}
	.st12{opacity:0.15;clip-path:url(#SVGID_2_);}
	.st13{clip-path:url(#SVGID_2_);fill:url(#SVGID_13_);}
	.st14{clip-path:url(#SVGID_2_);fill:url(#SVGID_16_);}
	.st15{clip-path:url(#SVGID_22_);}
	.st16{fill:url(#SVGID_23_);}
	.st17{filter:url(#Adobe_OpacityMaskFilter);}
	.st18{mask:url(#SVGID_26_);}
	.st19{clip-path:url(#SVGID_30_);}
	.st20{clip-path:url(#SVGID_36_);}
	.st21{fill:url(#SVGID_37_);}
	.st22{filter:url(#Adobe_OpacityMaskFilter_1_);}
	.st23{mask:url(#SVGID_40_);}
	.st24{clip-path:url(#SVGID_44_);}
	.st25{clip-path:url(#SVGID_50_);}
	.st26{fill:url(#SVGID_51_);}
	.st27{filter:url(#Adobe_OpacityMaskFilter_2_);}
	.st28{mask:url(#SVGID_54_);}
	.st29{clip-path:url(#SVGID_58_);}
	.st30{fill:#FFFFFF;}
	.st31{font-family:'HelveticaNeue-CondensedBlack';}
	.st32{font-size:81.3684px;}
	.st33{font-size:81.3594px;}
	.st34{opacity:0.42;clip-path:url(#SVGID_2_);}
	.st35{font-size:44.7837px;}
	.st36{font-size:44.7821px;}
	.st37{font-size:31.1344px;}
	.st38{font-size:31.1333px;}
	.st39{opacity:0.51;clip-path:url(#SVGID_2_);}
</style>
<defs>
	<rect id="SVGID_1_" x="-1" y="-0.6" width="1921" height="1081.2"/>
</defs>
<clipPath id="SVGID_2_">
	<use xlink:href="#SVGID_1_"  style="overflow:visible;"/>
</clipPath>
<g class="st0">
	<linearGradient id="SVGID_3_" gradientUnits="userSpaceOnUse" x1="959.7927" y1="1.7717" x2="959.7927" y2="1055.2885">
		<stop  offset="0" style="stop-color:#14212C"/>
		<stop  offset="0.3203" style="stop-color:#447C89"/>
		<stop  offset="0.7201" style="stop-color:#FFFFFF"/>
		<stop  offset="1" style="stop-color:#AAF9FF"/>
	</linearGradient>
	<rect x="-0.2" y="-2" class="st1" width="1920" height="1081.2"/>
</g>
<g class="st0">
	
		<image style="overflow:visible;" width="807" height="807" xlink:href="54356A24E77FD7A3.png"  transform="matrix(1 0 0 1 157.8543 -97.1457)">
	</image>
	<g>
		<linearGradient id="SVGID_4_" gradientUnits="userSpaceOnUse" x1="614.1799" y1="400.826" x2="524.1922" y2="239.2571">
			<stop  offset="0" style="stop-color:#F9FFBF;stop-opacity:0.5"/>
			<stop  offset="0.9986" style="stop-color:#FFF694"/>
		</linearGradient>
		<ellipse class="st2" cx="561.3" cy="305.9" rx="132.5" ry="132.6"/>
	</g>
</g>
<g class="st0">
	
		<linearGradient id="SVGID_5_" gradientUnits="userSpaceOnUse" x1="440.8988" y1="959.2595" x2="779.2068" y2="1519.9296" gradientTransform="matrix(0.9789 0.2044 -0.2044 0.9789 45.443 -213.4489)">
		<stop  offset="0" style="stop-color:#447C89"/>
		<stop  offset="1" style="stop-color:#284D57"/>
	</linearGradient>
	<path class="st3" d="M1223.8,1344.6c-37,177.5-433,244.9-884.4,150.5S-448,1180.4-411,1002.9S22,757.9,473.4,852.3
		S1260.8,1167.1,1223.8,1344.6z"/>
</g>
<g class="st0">
	
		<linearGradient id="SVGID_6_" gradientUnits="userSpaceOnUse" x1="1011.9278" y1="788.832" x2="1350.0573" y2="1349.2063" gradientTransform="matrix(0.9869 -0.1613 0.1613 0.9869 -23.5013 188.1371)">
		<stop  offset="1.229378e-03" style="stop-color:#447C89"/>
		<stop  offset="1" style="stop-color:#284D57"/>
	</linearGradient>
	<path class="st4" d="M2172.2,957.4c29.2,179-316,384.4-771.2,458.9c-455.1,74.5-847.8-10.2-877-189.2s316-384.4,771.2-458.9
		S2143,778.4,2172.2,957.4z"/>
</g>
<linearGradient id="SVGID_7_" gradientUnits="userSpaceOnUse" x1="1545.7927" y1="483.3068" x2="1545.7927" y2="735.6895">
	<stop  offset="0" style="stop-color:#4E97A7"/>
	<stop  offset="1" style="stop-color:#14212C"/>
</linearGradient>
<ellipse class="st5" cx="1545.8" cy="608.7" rx="142" ry="142.2"/>
<g class="st0">
	<polygon class="st6" points="1530.3,735.9 1506.1,885.9 1573.6,885.9 1555,735.9 	"/>
	<g class="st7">
		<defs>
			<ellipse id="SVGID_8_" class="st7" cx="1545.4" cy="609.1" rx="142.4" ry="142.5"/>
		</defs>
		<clipPath id="SVGID_9_">
			<use xlink:href="#SVGID_8_"  style="overflow:visible;"/>
		</clipPath>
		<g transform="matrix(1 0 0 1 0 -3.051758e-05)" style="clip-path:url(#SVGID_9_);">
			
				<image style="overflow:visible;" width="5760" height="3840" xlink:href="54356A24E77FD7A1.jpg"  transform="matrix(0.334 0 0 0.1682 554.5449 459.3238)">
			</image>
		</g>
	</g>
	<path class="st8" d="M1618.9,957.6l-45.6-71.7h-67.5l84.3,72c-66.5,4.6-93.3,36.6-59.6,75.4c36.5,42,129.8,76,208.4,76
		c78.6,0,112.8-34,76.4-76C1780.7,993.4,1694.9,960.8,1618.9,957.6z"/>
	<ellipse class="st8" cx="1539.9" cy="885.9" rx="53.8" ry="12.7"/>
</g>
<linearGradient id="SVGID_10_" gradientUnits="userSpaceOnUse" x1="523.0242" y1="727.8594" x2="523.0242" y2="831.1369">
	<stop  offset="0" style="stop-color:#4E97A7"/>
	<stop  offset="1" style="stop-color:#14212C"/>
</linearGradient>
<ellipse class="st9" cx="523" cy="779.2" rx="58.1" ry="58.2"/>
<polygon class="st10" points="516.6,831 506.8,892.3 534.4,892.3 526.8,831 "/>
<g class="st11">
	<defs>
		<ellipse id="SVGID_11_" class="st7" cx="522.8" cy="779.1" rx="58.2" ry="58.3"/>
	</defs>
	<clipPath id="SVGID_12_">
		<use xlink:href="#SVGID_11_"  style="overflow:visible;"/>
	</clipPath>
	<g transform="matrix(1 0 0 1 7.629395e-06 0)" style="clip-path:url(#SVGID_12_);">
		
			<image style="overflow:visible;" width="5760" height="3840" xlink:href="54356A24E77FD7A7.jpg"  transform="matrix(0.1366 0 0 6.878024e-02 117.5598 717.8643)">
		</image>
	</g>
</g>
<path class="st12" d="M541.4,922.8l-7.2-30.5h-27.6l22.9,30.7c-27.9,1.9-44,15.6-36.5,32.1c8.2,17.9,40.9,32.3,73,32.3
	c32.2,0,51.6-14.5,43.4-32.3C601.8,938.1,571.9,924.2,541.4,922.8z"/>
<ellipse class="st12" cx="520.6" cy="892.3" rx="22" ry="5.2"/>
<linearGradient id="SVGID_13_" gradientUnits="userSpaceOnUse" x1="1324.7963" y1="675.1155" x2="1324.7963" y2="748.7167">
	<stop  offset="0" style="stop-color:#4E97A7"/>
	<stop  offset="1" style="stop-color:#14212C"/>
</linearGradient>
<ellipse class="st13" cx="1324.8" cy="711.7" rx="41.4" ry="41.5"/>
<polygon class="st10" points="1320.2,748.6 1313.2,792.3 1332.9,792.3 1327.5,748.6 "/>
<g class="st11">
	<defs>
		<ellipse id="SVGID_14_" class="st7" cx="1324.7" cy="711.6" rx="41.5" ry="41.5"/>
	</defs>
	<clipPath id="SVGID_15_">
		<use xlink:href="#SVGID_14_"  style="overflow:visible;"/>
	</clipPath>
	<g transform="matrix(1 0 0 1 0 0)" style="clip-path:url(#SVGID_15_);">
		
			<image style="overflow:visible;" width="5760" height="3840" xlink:href="54356A24E77FD7A0.jpg"  transform="matrix(9.735385e-02 0 0 4.901652e-02 1035.8403 667.9924)">
		</image>
	</g>
</g>
<path class="st12" d="M1348,812.3l-15.2-20h-19.7l26.5,20.1c-19.3,1.3-26.2,10.2-15.4,21c11.7,11.7,39.8,21.2,62.8,21.2
	s32-9.5,20.3-21.2C1396.1,822.3,1370.2,813.2,1348,812.3z"/>
<ellipse class="st12" cx="1323" cy="792.3" rx="15.7" ry="3.7"/>
<linearGradient id="SVGID_16_" gradientUnits="userSpaceOnUse" x1="187.3518" y1="638.9574" x2="187.3518" y2="829.6362">
	<stop  offset="0" style="stop-color:#4E97A7"/>
	<stop  offset="1" style="stop-color:#14212C"/>
</linearGradient>
<ellipse class="st14" cx="187.4" cy="733.7" rx="107.3" ry="107.4"/>
<polygon class="st10" points="176.4,829.8 158.2,943.1 209.2,943.1 195.1,829.8 "/>
<g class="st11">
	<defs>
		<ellipse id="SVGID_17_" class="st7" cx="187.8" cy="734" rx="107.6" ry="107.7"/>
	</defs>
	<clipPath id="SVGID_18_">
		<use xlink:href="#SVGID_17_"  style="overflow:visible;"/>
	</clipPath>
	<g style="clip-path:url(#SVGID_18_);">
		
			<image style="overflow:visible;" width="5760" height="3840" xlink:href="54356A24E77FD7A3.jpg"  transform="matrix(0.2523 0 0 0.1271 -560.7949 620.8378)">
		</image>
	</g>
</g>
<path class="st12" d="M250,996.4l-41.1-53.3h-51l70.4,53.6c-49.8,3.4-67.1,27.2-38,56.1c31.4,31.2,105.1,56.5,164.5,56.5
	s82.1-25.3,50.7-56.5C375.5,1023.1,307.6,998.8,250,996.4z"/>
<ellipse class="st12" cx="183.7" cy="943.1" rx="40.6" ry="9.6"/>
<g class="st0">
	<g>
		<g>
			<defs>
				<path id="SVGID_19_" d="M328,44.1c-14.8,33.6-4.9,72.3,5.1,107.6c6.8,23.9,13.7,47.9,20.5,71.8c6.8,23.9,13.6,49.8,5.1,73.2
					c-8.2,22.5-28.7,37.7-48.2,51.6c-18.3,13.1-36.7,26.1-55,39.2c-8.2,5.8-16.6,11.9-21.9,20.4c-4.7,7.6-6.6,16.7-7.8,25.6
					c-3.2,23.8-2,48-5.7,71.7s-13.4,47.9-32.9,61.8c-15.6,11.1-35.3,14.1-54,18.2c-53.2,11.6-104,34.4-148,66.5
					c-61.7-88.9-79-200.2-94.6-307.3c-11.6-79.6-23.3-159.6-23.7-240.1c-0.1-28,1.2-56.5,10.3-83.1c15.1-44,50.7-78.9,91.8-100.6
					s87.5-31.4,133.7-36.8c76.3-8.8,156.3-5.9,225.9,26.6c18.6,8.7,36.5,19.5,51.4,33.7c14.1,13.4,27.6,30.8,32.9,49.6
					C379.8,7.5,345.8,3.6,328,44.1z"/>
			</defs>
			<clipPath id="SVGID_20_">
				<use xlink:href="#SVGID_19_"  style="overflow:visible;"/>
			</clipPath>
		</g>
		<g>
			<defs>
				<path id="SVGID_21_" d="M328,44.1c-14.8,33.6-4.9,72.3,5.1,107.6c6.8,23.9,13.7,47.9,20.5,71.8c6.8,23.9,13.6,49.8,5.1,73.2
					c-8.2,22.5-28.7,37.7-48.2,51.6c-18.3,13.1-36.7,26.1-55,39.2c-8.2,5.8-16.6,11.9-21.9,20.4c-4.7,7.6-6.6,16.7-7.8,25.6
					c-3.2,23.8-2,48-5.7,71.7s-13.4,47.9-32.9,61.8c-15.6,11.1-35.3,14.1-54,18.2c-53.2,11.6-104,34.4-148,66.5
					c-61.7-88.9-79-200.2-94.6-307.3c-11.6-79.6-23.3-159.6-23.7-240.1c-0.1-28,1.2-56.5,10.3-83.1c15.1-44,50.7-78.9,91.8-100.6
					s87.5-31.4,133.7-36.8c76.3-8.8,156.3-5.9,225.9,26.6c18.6,8.7,36.5,19.5,51.4,33.7c14.1,13.4,27.6,30.8,32.9,49.6
					C379.8,7.5,345.8,3.6,328,44.1z"/>
			</defs>
			<clipPath id="SVGID_22_">
				<use xlink:href="#SVGID_21_"  style="overflow:visible;"/>
			</clipPath>
			<g class="st15">
				<g id="rhUbVn.tif_21_">
					
						<image style="overflow:visible;" width="2215" height="1500" id="Layer_0_16_" xlink:href="54356A24E77FD7A1.png"  transform="matrix(0.5567 0 0 0.5489 -178.9665 -116.9878)">
					</image>
				</g>
				<g>
					<g>
						<linearGradient id="SVGID_23_" gradientUnits="userSpaceOnUse" x1="-184.8285" y1="294.7109" x2="1059.9193" y2="294.7109">
							<stop  offset="0" style="stop-color:#447C89"/>
							<stop  offset="1" style="stop-color:#284D57"/>
						</linearGradient>
						<rect x="-184.8" y="-120.7" class="st16" width="1244.7" height="830.7"/>
					</g>
				</g>
			</g>
		</g>
		<g>
			<defs>
				<path id="SVGID_24_" d="M328,44.1c-14.8,33.6-4.9,72.3,5.1,107.6c6.8,23.9,13.7,47.9,20.5,71.8c6.8,23.9,13.6,49.8,5.1,73.2
					c-8.2,22.5-28.7,37.7-48.2,51.6c-18.3,13.1-36.7,26.1-55,39.2c-8.2,5.8-16.6,11.9-21.9,20.4c-4.7,7.6-6.6,16.7-7.8,25.6
					c-3.2,23.8-2,48-5.7,71.7s-13.4,47.9-32.9,61.8c-15.6,11.1-35.3,14.1-54,18.2c-53.2,11.6-104,34.4-148,66.5
					c-61.7-88.9-79-200.2-94.6-307.3c-11.6-79.6-23.3-159.6-23.7-240.1c-0.1-28,1.2-56.5,10.3-83.1c15.1-44,50.7-78.9,91.8-100.6
					s87.5-31.4,133.7-36.8c76.3-8.8,156.3-5.9,225.9,26.6c18.6,8.7,36.5,19.5,51.4,33.7c14.1,13.4,27.6,30.8,32.9,49.6
					C379.8,7.5,345.8,3.6,328,44.1z"/>
			</defs>
			<clipPath id="SVGID_25_">
				<use xlink:href="#SVGID_24_"  style="overflow:visible;"/>
			</clipPath>
		</g>
	</g>
	<defs>
		<filter id="Adobe_OpacityMaskFilter" filterUnits="userSpaceOnUse" x="-184.8" y="-120.7" width="1244.7" height="830.7">
			
				<feColorMatrix  type="matrix" values="-1 0 0 0 1  0 -1 0 0 1  0 0 -1 0 1  0 0 0 1 0" color-interpolation-filters="sRGB" result="source"/>
		</filter>
	</defs>
	<mask maskUnits="userSpaceOnUse" x="-184.8" y="-120.7" width="1244.7" height="830.7" id="SVGID_26_">
		<g class="st17">
			
				<image style="overflow:visible;" width="551" height="777" xlink:href="54356A24E77FD7AF.jpg"  transform="matrix(1 0 0 1 -136 -123)">
			</image>
		</g>
	</mask>
	<g class="st18">
		<g>
			<defs>
				<path id="SVGID_27_" d="M328,44.1c-14.8,33.6-4.9,72.3,5.1,107.6c6.8,23.9,13.7,47.9,20.5,71.8c6.8,23.9,13.6,49.8,5.1,73.2
					c-8.2,22.5-28.7,37.7-48.2,51.6c-18.3,13.1-36.7,26.1-55,39.2c-8.2,5.8-16.6,11.9-21.9,20.4c-4.7,7.6-6.6,16.7-7.8,25.6
					c-3.2,23.8-2,48-5.7,71.7s-13.4,47.9-32.9,61.8c-15.6,11.1-35.3,14.1-54,18.2c-53.2,11.6-104,34.4-148,66.5
					c-61.7-88.9-79-200.2-94.6-307.3c-11.6-79.6-23.3-159.6-23.7-240.1c-0.1-28,1.2-56.5,10.3-83.1c15.1-44,50.7-78.9,91.8-100.6
					s87.5-31.4,133.7-36.8c76.3-8.8,156.3-5.9,225.9,26.6c18.6,8.7,36.5,19.5,51.4,33.7c14.1,13.4,27.6,30.8,32.9,49.6
					C379.8,7.5,345.8,3.6,328,44.1z"/>
			</defs>
			<clipPath id="SVGID_28_">
				<use xlink:href="#SVGID_27_"  style="overflow:visible;"/>
			</clipPath>
		</g>
		<g>
			<defs>
				<path id="SVGID_29_" d="M328,44.1c-14.8,33.6-4.9,72.3,5.1,107.6c6.8,23.9,13.7,47.9,20.5,71.8c6.8,23.9,13.6,49.8,5.1,73.2
					c-8.2,22.5-28.7,37.7-48.2,51.6c-18.3,13.1-36.7,26.1-55,39.2c-8.2,5.8-16.6,11.9-21.9,20.4c-4.7,7.6-6.6,16.7-7.8,25.6
					c-3.2,23.8-2,48-5.7,71.7s-13.4,47.9-32.9,61.8c-15.6,11.1-35.3,14.1-54,18.2c-53.2,11.6-104,34.4-148,66.5
					c-61.7-88.9-79-200.2-94.6-307.3c-11.6-79.6-23.3-159.6-23.7-240.1c-0.1-28,1.2-56.5,10.3-83.1c15.1-44,50.7-78.9,91.8-100.6
					s87.5-31.4,133.7-36.8c76.3-8.8,156.3-5.9,225.9,26.6c18.6,8.7,36.5,19.5,51.4,33.7c14.1,13.4,27.6,30.8,32.9,49.6
					C379.8,7.5,345.8,3.6,328,44.1z"/>
			</defs>
			<clipPath id="SVGID_30_">
				<use xlink:href="#SVGID_29_"  style="overflow:visible;"/>
			</clipPath>
			<g class="st19">
				<g id="rhUbVn.tif_16_">
					<path d="M-179-117c0,6.5,0,13,0,19.5c0,26.7,0,53.4,0,80.1c0,26.9,0,53.8,0,80.7c0,26.7,0,53.4,0,80.1c0,26.9,0,53.8,0,80.7
						c0,26.7,0,53.4,0,80.1c0,26.9,0,53.8,0,80.7c0,26.7,0,53.4,0,80.1c0,26.9,0,53.8,0,80.7c0,26.7,0,53.4,0,80.1
						c0,26.8,0,53.6,0,80.4h1233c0-6.5,0-13,0-19.5c0-26.7,0-53.4,0-80.1c0-26.9,0-53.8,0-80.7c0-26.7,0-53.4,0-80.1
						c0-26.9,0-53.8,0-80.7c0-26.7,0-53.4,0-80.1c0-26.9,0-53.8,0-80.7c0-26.7,0-53.4,0-80.1c0-26.9,0-53.8,0-80.7
						c0-26.7,0-53.4,0-80.1c0-26.8,0-53.6,0-80.4H-179z"/>
				</g>
				<g>
					<g>
						<rect x="-184.8" y="-120.7" width="1244.7" height="830.7"/>
					</g>
				</g>
			</g>
		</g>
		<g>
			<defs>
				<path id="SVGID_31_" d="M328,44.1c-14.8,33.6-4.9,72.3,5.1,107.6c6.8,23.9,13.7,47.9,20.5,71.8c6.8,23.9,13.6,49.8,5.1,73.2
					c-8.2,22.5-28.7,37.7-48.2,51.6c-18.3,13.1-36.7,26.1-55,39.2c-8.2,5.8-16.6,11.9-21.9,20.4c-4.7,7.6-6.6,16.7-7.8,25.6
					c-3.2,23.8-2,48-5.7,71.7s-13.4,47.9-32.9,61.8c-15.6,11.1-35.3,14.1-54,18.2c-53.2,11.6-104,34.4-148,66.5
					c-61.7-88.9-79-200.2-94.6-307.3c-11.6-79.6-23.3-159.6-23.7-240.1c-0.1-28,1.2-56.5,10.3-83.1c15.1-44,50.7-78.9,91.8-100.6
					s87.5-31.4,133.7-36.8c76.3-8.8,156.3-5.9,225.9,26.6c18.6,8.7,36.5,19.5,51.4,33.7c14.1,13.4,27.6,30.8,32.9,49.6
					C379.8,7.5,345.8,3.6,328,44.1z"/>
			</defs>
			<clipPath id="SVGID_32_">
				<use xlink:href="#SVGID_31_"  style="overflow:visible;"/>
			</clipPath>
		</g>
	</g>
</g>
<g class="st0">
	<g>
		<g>
			<defs>
				<path id="SVGID_33_" d="M1893.5,295c-12.4,19.9-15.5,44-18.3,67.3c-6.8,56.1-13.5,112.2-20.3,168.3c-2.1,17.9-4.8,37-16.9,50.3
					c-12.7,14-33.4,18.9-45.2,33.7c-13.4,16.8-11.2,41.3-4.6,61.8c6.6,20.5,16.8,40.4,17.4,61.9c1.3,47.7-43.1,82.3-82.9,108.5
					c-35.2,23.2-70.4,46.4-105.6,69.7c-25.6,16.9-53.3,36.8-59.8,66.8c-3,14.1-0.9,28.7-1.4,43.1c-1.4,35.2-20,69.3-48.9,89.5
					c136,1.5,272,1.6,408,0.3c14.1-0.1,29.7-0.9,40-10.6c8.9-8.4,11.5-21.4,13.4-33.5c12.1-75.5,18.8-151.9,20.1-228.4
					c1.7-101.3-6.1-202.5-13.9-303.5c0-61.4-9.6-124.3-14.3-185.5c-1.2-15,3-77.2-8.3-86.2C1933.9,254.1,1902.1,281.2,1893.5,295z"
					/>
			</defs>
			<clipPath id="SVGID_34_">
				<use xlink:href="#SVGID_33_"  style="overflow:visible;"/>
			</clipPath>
		</g>
		<g>
			<defs>
				<path id="SVGID_35_" d="M1893.5,295c-12.4,19.9-15.5,44-18.3,67.3c-6.8,56.1-13.5,112.2-20.3,168.3c-2.1,17.9-4.8,37-16.9,50.3
					c-12.7,14-33.4,18.9-45.2,33.7c-13.4,16.8-11.2,41.3-4.6,61.8c6.6,20.5,16.8,40.4,17.4,61.9c1.3,47.7-43.1,82.3-82.9,108.5
					c-35.2,23.2-70.4,46.4-105.6,69.7c-25.6,16.9-53.3,36.8-59.8,66.8c-3,14.1-0.9,28.7-1.4,43.1c-1.4,35.2-20,69.3-48.9,89.5
					c136,1.5,272,1.6,408,0.3c14.1-0.1,29.7-0.9,40-10.6c8.9-8.4,11.5-21.4,13.4-33.5c12.1-75.5,18.8-151.9,20.1-228.4
					c1.7-101.3-6.1-202.5-13.9-303.5c0-61.4-9.6-124.3-14.3-185.5c-1.2-15,3-77.2-8.3-86.2C1933.9,254.1,1902.1,281.2,1893.5,295z"
					/>
			</defs>
			<clipPath id="SVGID_36_">
				<use xlink:href="#SVGID_35_"  style="overflow:visible;"/>
			</clipPath>
			<g class="st20">
				<g id="rhUbVn.tif_19_">
					
						<image style="overflow:visible;" width="2215" height="1500" id="Layer_0_15_" xlink:href="54356A24E77FD7A0.png"  transform="matrix(0.6108 0 0 0.6023 810.819 269.2668)">
					</image>
				</g>
				<g>
					<g>
						<linearGradient id="SVGID_37_" gradientUnits="userSpaceOnUse" x1="804.3874" y1="720.9664" x2="2170.0754" y2="720.9664">
							<stop  offset="0" style="stop-color:#447C89"/>
							<stop  offset="1" style="stop-color:#284D57"/>
						</linearGradient>
						<rect x="804.4" y="265.2" class="st21" width="1365.7" height="911.4"/>
					</g>
				</g>
			</g>
		</g>
		<g>
			<defs>
				<path id="SVGID_38_" d="M1893.5,295c-12.4,19.9-15.5,44-18.3,67.3c-6.8,56.1-13.5,112.2-20.3,168.3c-2.1,17.9-4.8,37-16.9,50.3
					c-12.7,14-33.4,18.9-45.2,33.7c-13.4,16.8-11.2,41.3-4.6,61.8c6.6,20.5,16.8,40.4,17.4,61.9c1.3,47.7-43.1,82.3-82.9,108.5
					c-35.2,23.2-70.4,46.4-105.6,69.7c-25.6,16.9-53.3,36.8-59.8,66.8c-3,14.1-0.9,28.7-1.4,43.1c-1.4,35.2-20,69.3-48.9,89.5
					c136,1.5,272,1.6,408,0.3c14.1-0.1,29.7-0.9,40-10.6c8.9-8.4,11.5-21.4,13.4-33.5c12.1-75.5,18.8-151.9,20.1-228.4
					c1.7-101.3-6.1-202.5-13.9-303.5c0-61.4-9.6-124.3-14.3-185.5c-1.2-15,3-77.2-8.3-86.2C1933.9,254.1,1902.1,281.2,1893.5,295z"
					/>
			</defs>
			<clipPath id="SVGID_39_">
				<use xlink:href="#SVGID_38_"  style="overflow:visible;"/>
			</clipPath>
		</g>
	</g>
	<defs>
		<filter id="Adobe_OpacityMaskFilter_1_" filterUnits="userSpaceOnUse" x="804.4" y="264.3" width="1365.7" height="912.4">
			
				<feColorMatrix  type="matrix" values="-1 0 0 0 1  0 -1 0 0 1  0 0 -1 0 1  0 0 0 1 0" color-interpolation-filters="sRGB" result="source"/>
		</filter>
	</defs>
	<mask maskUnits="userSpaceOnUse" x="804.4" y="264.3" width="1365.7" height="912.4" id="SVGID_40_">
		<g class="st22">
			
				<image style="overflow:visible;" width="487" height="857" xlink:href="54356A24E77FD7A6.jpg"  transform="matrix(1 0 0 1 1504 262)">
			</image>
		</g>
	</mask>
	<g class="st23">
		<g>
			<defs>
				<path id="SVGID_41_" d="M1893.5,295c-12.4,19.9-15.5,44-18.3,67.3c-6.8,56.1-13.5,112.2-20.3,168.3c-2.1,17.9-4.8,37-16.9,50.3
					c-12.7,14-33.4,18.9-45.2,33.7c-13.4,16.8-11.2,41.3-4.6,61.8c6.6,20.5,16.8,40.4,17.4,61.9c1.3,47.7-43.1,82.3-82.9,108.5
					c-35.2,23.2-70.4,46.4-105.6,69.7c-25.6,16.9-53.3,36.8-59.8,66.8c-3,14.1-0.9,28.7-1.4,43.1c-1.4,35.2-20,69.3-48.9,89.5
					c136,1.5,272,1.6,408,0.3c14.1-0.1,29.7-0.9,40-10.6c8.9-8.4,11.5-21.4,13.4-33.5c12.1-75.5,18.8-151.9,20.1-228.4
					c1.7-101.3-6.1-202.5-13.9-303.5c0-61.4-9.6-124.3-14.3-185.5c-1.2-15,3-77.2-8.3-86.2C1933.9,254.1,1902.1,281.2,1893.5,295z"
					/>
			</defs>
			<clipPath id="SVGID_42_">
				<use xlink:href="#SVGID_41_"  style="overflow:visible;"/>
			</clipPath>
		</g>
		<g>
			<defs>
				<path id="SVGID_43_" d="M1893.5,295c-12.4,19.9-15.5,44-18.3,67.3c-6.8,56.1-13.5,112.2-20.3,168.3c-2.1,17.9-4.8,37-16.9,50.3
					c-12.7,14-33.4,18.9-45.2,33.7c-13.4,16.8-11.2,41.3-4.6,61.8c6.6,20.5,16.8,40.4,17.4,61.9c1.3,47.7-43.1,82.3-82.9,108.5
					c-35.2,23.2-70.4,46.4-105.6,69.7c-25.6,16.9-53.3,36.8-59.8,66.8c-3,14.1-0.9,28.7-1.4,43.1c-1.4,35.2-20,69.3-48.9,89.5
					c136,1.5,272,1.6,408,0.3c14.1-0.1,29.7-0.9,40-10.6c8.9-8.4,11.5-21.4,13.4-33.5c12.1-75.5,18.8-151.9,20.1-228.4
					c1.7-101.3-6.1-202.5-13.9-303.5c0-61.4-9.6-124.3-14.3-185.5c-1.2-15,3-77.2-8.3-86.2C1933.9,254.1,1902.1,281.2,1893.5,295z"
					/>
			</defs>
			<clipPath id="SVGID_44_">
				<use xlink:href="#SVGID_43_"  style="overflow:visible;"/>
			</clipPath>
			<g class="st24">
				<g id="rhUbVn.tif_15_">
					<path d="M810.8,269.3c0,7.1,0,14.3,0,21.4c0,29.3,0,58.6,0,87.9c0,29.5,0,59,0,88.5c0,29.3,0,58.6,0,87.9c0,29.5,0,59,0,88.5
						c0,29.3,0,58.6,0,87.9c0,29.5,0,59,0,88.5c0,29.3,0,58.6,0,87.9c0,29.5,0,59,0,88.5c0,29.3,0,58.6,0,87.9c0,29.4,0,58.8,0,88.2
						h1352.8c0-7.1,0-14.3,0-21.4c0-29.3,0-58.6,0-87.9c0-29.5,0-59,0-88.5c0-29.3,0-58.6,0-87.9c0-29.5,0-59,0-88.5
						c0-29.3,0-58.6,0-87.9c0-29.5,0-59,0-88.5c0-29.3,0-58.6,0-87.9c0-29.5,0-59,0-88.5c0-29.3,0-58.6,0-87.9c0-29.4,0-58.8,0-88.2
						H810.8z"/>
				</g>
				<g>
					<g>
						<rect x="804.4" y="265.2" width="1365.7" height="911.4"/>
					</g>
				</g>
			</g>
		</g>
		<g>
			<defs>
				<path id="SVGID_45_" d="M1893.5,295c-12.4,19.9-15.5,44-18.3,67.3c-6.8,56.1-13.5,112.2-20.3,168.3c-2.1,17.9-4.8,37-16.9,50.3
					c-12.7,14-33.4,18.9-45.2,33.7c-13.4,16.8-11.2,41.3-4.6,61.8c6.6,20.5,16.8,40.4,17.4,61.9c1.3,47.7-43.1,82.3-82.9,108.5
					c-35.2,23.2-70.4,46.4-105.6,69.7c-25.6,16.9-53.3,36.8-59.8,66.8c-3,14.1-0.9,28.7-1.4,43.1c-1.4,35.2-20,69.3-48.9,89.5
					c136,1.5,272,1.6,408,0.3c14.1-0.1,29.7-0.9,40-10.6c8.9-8.4,11.5-21.4,13.4-33.5c12.1-75.5,18.8-151.9,20.1-228.4
					c1.7-101.3-6.1-202.5-13.9-303.5c0-61.4-9.6-124.3-14.3-185.5c-1.2-15,3-77.2-8.3-86.2C1933.9,254.1,1902.1,281.2,1893.5,295z"
					/>
			</defs>
			<clipPath id="SVGID_46_">
				<use xlink:href="#SVGID_45_"  style="overflow:visible;"/>
			</clipPath>
		</g>
	</g>
</g>
<g class="st0">
	<g>
		<g>
			<defs>
				<path id="SVGID_47_" d="M375.1,1179.9c-14-64.5,18.8-136.4,76.6-168.1c8-4.4,17.2-8.1,25.9-5.6c6.5,1.9,11.6,6.9,16,12.1
					c14,16.8,23.6,37.2,39.1,52.5c15.5,15.4,40.7,24.8,59.3,13.3c12-7.4,20.6-22.7,34.7-22.8c12.9-0.1,22,12.9,34.2,17.1
					c18.9,6.6,38.2-9.6,48.7-26.7s18-37.5,35-48.1c22-13.7,55.3-2.2,64.1,22.2c8.4,22.9-0.4,55,20.3,67.7c14.6,8.9,33.6,0.5,50.5,3
					c18,2.7,31.6,17.3,43.6,31c32.5,37.1,66.6,77.9,70.4,127.2c-71.9,27-150.2,28.3-225.8,15.1c-52.6-9.2-103.1-28.1-155.7-37.2
					c-53.9-9.3-109.1-8.1-163.3-15.2C422.1,1214,380.9,1206.5,375.1,1179.9z"/>
			</defs>
			<clipPath id="SVGID_48_">
				<use xlink:href="#SVGID_47_"  style="overflow:visible;"/>
			</clipPath>
		</g>
		<g>
			<defs>
				<path id="SVGID_49_" d="M375.1,1179.9c-14-64.5,18.8-136.4,76.6-168.1c8-4.4,17.2-8.1,25.9-5.6c6.5,1.9,11.6,6.9,16,12.1
					c14,16.8,23.6,37.2,39.1,52.5c15.5,15.4,40.7,24.8,59.3,13.3c12-7.4,20.6-22.7,34.7-22.8c12.9-0.1,22,12.9,34.2,17.1
					c18.9,6.6,38.2-9.6,48.7-26.7s18-37.5,35-48.1c22-13.7,55.3-2.2,64.1,22.2c8.4,22.9-0.4,55,20.3,67.7c14.6,8.9,33.6,0.5,50.5,3
					c18,2.7,31.6,17.3,43.6,31c32.5,37.1,66.6,77.9,70.4,127.2c-71.9,27-150.2,28.3-225.8,15.1c-52.6-9.2-103.1-28.1-155.7-37.2
					c-53.9-9.3-109.1-8.1-163.3-15.2C422.1,1214,380.9,1206.5,375.1,1179.9z"/>
			</defs>
			<clipPath id="SVGID_50_">
				<use xlink:href="#SVGID_49_"  style="overflow:visible;"/>
			</clipPath>
			<g class="st25">
				<g id="rhUbVn.tif_20_">
					
						<image style="overflow:visible;" width="2215" height="1500" id="Layer_0_14_" xlink:href="2BB85755757A2A90.png"  transform="matrix(0.6538 0 0 0.6447 304.5301 872.5897)">
					</image>
				</g>
				<g>
					<g>
						<linearGradient id="SVGID_51_" gradientUnits="userSpaceOnUse" x1="297.6449" y1="1356.1426" x2="1759.6393" y2="1356.1426">
							<stop  offset="0" style="stop-color:#447C89"/>
							<stop  offset="1" style="stop-color:#284D57"/>
						</linearGradient>
						<rect x="297.6" y="868.3" class="st26" width="1462" height="975.7"/>
					</g>
				</g>
			</g>
		</g>
		<g>
			<defs>
				<path id="SVGID_52_" d="M375.1,1179.9c-14-64.5,18.8-136.4,76.6-168.1c8-4.4,17.2-8.1,25.9-5.6c6.5,1.9,11.6,6.9,16,12.1
					c14,16.8,23.6,37.2,39.1,52.5c15.5,15.4,40.7,24.8,59.3,13.3c12-7.4,20.6-22.7,34.7-22.8c12.9-0.1,22,12.9,34.2,17.1
					c18.9,6.6,38.2-9.6,48.7-26.7s18-37.5,35-48.1c22-13.7,55.3-2.2,64.1,22.2c8.4,22.9-0.4,55,20.3,67.7c14.6,8.9,33.6,0.5,50.5,3
					c18,2.7,31.6,17.3,43.6,31c32.5,37.1,66.6,77.9,70.4,127.2c-71.9,27-150.2,28.3-225.8,15.1c-52.6-9.2-103.1-28.1-155.7-37.2
					c-53.9-9.3-109.1-8.1-163.3-15.2C422.1,1214,380.9,1206.5,375.1,1179.9z"/>
			</defs>
			<clipPath id="SVGID_53_">
				<use xlink:href="#SVGID_52_"  style="overflow:visible;"/>
			</clipPath>
		</g>
	</g>
	<defs>
		<filter id="Adobe_OpacityMaskFilter_2_" filterUnits="userSpaceOnUse" x="297.6" y="868.3" width="1462" height="975.7">
			
				<feColorMatrix  type="matrix" values="-1 0 0 0 1  0 -1 0 0 1  0 0 -1 0 1  0 0 0 1 0" color-interpolation-filters="sRGB" result="source"/>
		</filter>
	</defs>
	<mask maskUnits="userSpaceOnUse" x="297.6" y="868.3" width="1462" height="975.7" id="SVGID_54_">
		<g class="st27">
			
				<image style="overflow:visible;" width="627" height="286" xlink:href="2BB85755757A2A90.jpg"  transform="matrix(1 0 0 1 369 995)">
			</image>
		</g>
	</mask>
	<g class="st28">
		<g>
			<defs>
				<path id="SVGID_55_" d="M375.1,1179.9c-14-64.5,18.8-136.4,76.6-168.1c8-4.4,17.2-8.1,25.9-5.6c6.5,1.9,11.6,6.9,16,12.1
					c14,16.8,23.6,37.2,39.1,52.5c15.5,15.4,40.7,24.8,59.3,13.3c12-7.4,20.6-22.7,34.7-22.8c12.9-0.1,22,12.9,34.2,17.1
					c18.9,6.6,38.2-9.6,48.7-26.7s18-37.5,35-48.1c22-13.7,55.3-2.2,64.1,22.2c8.4,22.9-0.4,55,20.3,67.7c14.6,8.9,33.6,0.5,50.5,3
					c18,2.7,31.6,17.3,43.6,31c32.5,37.1,66.6,77.9,70.4,127.2c-71.9,27-150.2,28.3-225.8,15.1c-52.6-9.2-103.1-28.1-155.7-37.2
					c-53.9-9.3-109.1-8.1-163.3-15.2C422.1,1214,380.9,1206.5,375.1,1179.9z"/>
			</defs>
			<clipPath id="SVGID_56_">
				<use xlink:href="#SVGID_55_"  style="overflow:visible;"/>
			</clipPath>
		</g>
		<g>
			<defs>
				<path id="SVGID_57_" d="M375.1,1179.9c-14-64.5,18.8-136.4,76.6-168.1c8-4.4,17.2-8.1,25.9-5.6c6.5,1.9,11.6,6.9,16,12.1
					c14,16.8,23.6,37.2,39.1,52.5c15.5,15.4,40.7,24.8,59.3,13.3c12-7.4,20.6-22.7,34.7-22.8c12.9-0.1,22,12.9,34.2,17.1
					c18.9,6.6,38.2-9.6,48.7-26.7s18-37.5,35-48.1c22-13.7,55.3-2.2,64.1,22.2c8.4,22.9-0.4,55,20.3,67.7c14.6,8.9,33.6,0.5,50.5,3
					c18,2.7,31.6,17.3,43.6,31c32.5,37.1,66.6,77.9,70.4,127.2c-71.9,27-150.2,28.3-225.8,15.1c-52.6-9.2-103.1-28.1-155.7-37.2
					c-53.9-9.3-109.1-8.1-163.3-15.2C422.1,1214,380.9,1206.5,375.1,1179.9z"/>
			</defs>
			<clipPath id="SVGID_58_">
				<use xlink:href="#SVGID_57_"  style="overflow:visible;"/>
			</clipPath>
			<g class="st29">
				<g id="rhUbVn.tif_14_">
					<path d="M304.5,872.6c0,7.6,0,15.3,0,22.9c0,31.4,0,62.8,0,94.1c0,31.6,0,63.2,0,94.8c0,31.4,0,62.8,0,94.1
						c0,31.6,0,63.2,0,94.8c0,31.4,0,62.8,0,94.1c0,31.6,0,63.2,0,94.8c0,31.4,0,62.8,0,94.1c0,31.6,0,63.2,0,94.8
						c0,31.4,0,62.8,0,94.1c0,31.5,0,63,0,94.5h1448.2c0-7.6,0-15.3,0-22.9c0-31.4,0-62.8,0-94.1c0-31.6,0-63.2,0-94.8
						c0-31.4,0-62.8,0-94.1c0-31.6,0-63.2,0-94.8c0-31.4,0-62.8,0-94.1c0-31.6,0-63.2,0-94.8c0-31.4,0-62.8,0-94.1
						c0-31.6,0-63.2,0-94.8c0-31.4,0-62.8,0-94.1c0-31.5,0-63,0-94.5H304.5z"/>
				</g>
				<g>
					<g>
						<rect x="297.6" y="868.3" width="1462" height="975.7"/>
					</g>
				</g>
			</g>
		</g>
		<g>
			<defs>
				<path id="SVGID_59_" d="M375.1,1179.9c-14-64.5,18.8-136.4,76.6-168.1c8-4.4,17.2-8.1,25.9-5.6c6.5,1.9,11.6,6.9,16,12.1
					c14,16.8,23.6,37.2,39.1,52.5c15.5,15.4,40.7,24.8,59.3,13.3c12-7.4,20.6-22.7,34.7-22.8c12.9-0.1,22,12.9,34.2,17.1
					c18.9,6.6,38.2-9.6,48.7-26.7s18-37.5,35-48.1c22-13.7,55.3-2.2,64.1,22.2c8.4,22.9-0.4,55,20.3,67.7c14.6,8.9,33.6,0.5,50.5,3
					c18,2.7,31.6,17.3,43.6,31c32.5,37.1,66.6,77.9,70.4,127.2c-71.9,27-150.2,28.3-225.8,15.1c-52.6-9.2-103.1-28.1-155.7-37.2
					c-53.9-9.3-109.1-8.1-163.3-15.2C422.1,1214,380.9,1206.5,375.1,1179.9z"/>
			</defs>
			<clipPath id="SVGID_60_">
				<use xlink:href="#SVGID_59_"  style="overflow:visible;"/>
			</clipPath>
		</g>
	</g>
</g>
<g class="st0">
	<ellipse class="st30" cx="3091.8" cy="609.3" rx="2" ry="2"/>
</g>
<g class="st0">
	<ellipse class="st30" cx="3089.9" cy="545.8" rx="2.1" ry="2.1"/>
</g>
<g class="st0">
	<ellipse class="st30" cx="2701.9" cy="201.6" rx="2" ry="2"/>
</g>
<g class="st0">
	<ellipse class="st30" cx="2815.9" cy="146.3" rx="3.7" ry="3.7"/>
</g>
<g class="st0">
	<ellipse class="st30" cx="3393.9" cy="209.1" rx="4.3" ry="4.3"/>
</g>
<g class="st0">
	<ellipse class="st30" cx="2843.6" cy="-151.9" rx="2.1" ry="2.1"/>
</g>
<g class="st0">
	<text transform="matrix(0.4259 -1.2693 -0.9478 -0.3188 722.7531 146.4502)" class="st6 st31 st32">)</text>
</g>
<g class="st0">
	<text transform="matrix(4.304719e-02 -1.3384 -0.9995 -3.221473e-02 791.1907 164.1032)" class="st6 st31 st33">)</text>
</g>
<g class="st34">
	<text transform="matrix(0.205 -1.3233 -0.9882 -0.1534 904.8206 301.2872)" class="st6 st31 st35">)</text>
</g>
<g class="st34">
	<text transform="matrix(-0.1841 -1.3264 -0.9905 0.1378 943.5616 304.4807)" class="st6 st31 st36">)</text>
</g>
<g class="st0">
	<text transform="matrix(0.205 -1.3233 -0.9882 -0.1534 1682.6859 216.9924)" class="st6 st31 st37">)</text>
</g>
<g class="st0">
	<text transform="matrix(-0.1841 -1.3264 -0.9905 0.1378 1709.6111 219.2002)" class="st6 st31 st38">)</text>
</g>
<g class="st39">
	<text transform="matrix(0.205 -1.3233 -0.9882 -0.1534 290.7969 422.166)" class="st6 st31 st37">)</text>
</g>
<g class="st39">
	<text transform="matrix(-0.1841 -1.3264 -0.9905 0.1378 317.7217 424.3734)" class="st6 st31 st38">)</text>
</g>
</svg>
